<svg width="368" height="368" viewBox="0 0 368 368" fill="none" xmlns="http://www.w3.org/2000/svg">
<g filter="url(#filter0_i_446_199)">
<rect width="368" height="368" rx="100" fill="white" fill-opacity="0.96"/>
<rect x="1.5" y="1.5" width="365" height="365" rx="98.5" stroke="white" stroke-width="3"/>
<rect x="74" y="74" width="220" height="220" rx="50" fill="#1B70F0"/>
<circle cx="234" cy="184" r="80" fill="url(#paint0_linear_446_199)"/>
<path d="M147 151.5C155.613 151.5 162.39 154.033 167.33 159.1C172.333 164.103 174.835 171.355 174.835 180.855V218.57H167.9V199H126.1V218.57H119.26V180.855C119.26 171.355 121.73 164.103 126.67 159.1C131.673 154.033 138.45 151.5 147 151.5ZM167.9 192.92V180.19C167.9 172.78 166.063 167.207 162.39 163.47C158.717 159.67 153.587 157.77 147 157.77C140.413 157.77 135.283 159.67 131.61 163.47C127.937 167.207 126.1 172.78 126.1 180.19V192.92H167.9Z" fill="white"/>
<path d="M209.679 158.15V212.49H223.169V218.57H189.254V212.49H202.744V158.15H189.254V152.07H223.169V158.15H209.679Z" fill="white"/>
<path fill-rule="evenodd" clip-rule="evenodd" d="M144 54C146.761 54 149 56.2386 149 59L149 89C149 91.7614 146.761 94 144 94C141.239 94 139 91.7614 139 89L139 59C139 56.2386 141.239 54 144 54Z" fill="url(#paint1_linear_446_199)"/>
<path fill-rule="evenodd" clip-rule="evenodd" d="M144 274C146.761 274 149 276.239 149 279L149 309C149 311.761 146.761 314 144 314C141.239 314 139 311.761 139 309L139 279C139 276.239 141.239 274 144 274Z" fill="url(#paint2_linear_446_199)"/>
<path fill-rule="evenodd" clip-rule="evenodd" d="M54 141.5C54 138.739 56.2386 136.5 59 136.5L79 136.5C81.7614 136.5 84 138.739 84 141.5C84 144.261 81.7614 146.5 79 146.5L59 146.5C56.2386 146.5 54 144.261 54 141.5Z" fill="url(#paint3_linear_446_199)"/>
<path fill-rule="evenodd" clip-rule="evenodd" d="M54 181.5C54 178.739 56.2386 176.5 59 176.5L89 176.5C91.7614 176.5 94 178.739 94 181.5C94 184.261 91.7614 186.5 89 186.5L59 186.5C56.2386 186.5 54 184.261 54 181.5Z" fill="url(#paint4_linear_446_199)"/>
<path fill-rule="evenodd" clip-rule="evenodd" d="M54 221.5C54 218.739 56.2386 216.5 59 216.5L84 216.5C86.7614 216.5 89 218.739 89 221.5C89 224.261 86.7614 226.5 84 226.5L59 226.5C56.2386 226.5 54 224.261 54 221.5Z" fill="url(#paint5_linear_446_199)"/>
<path fill-rule="evenodd" clip-rule="evenodd" d="M184 54C186.761 54 189 56.2386 189 59L189 81.5C189 84.2614 186.761 86.5 184 86.5C181.239 86.5 179 84.2614 179 81.5L179 59C179 56.2386 181.239 54 184 54Z" fill="url(#paint6_linear_446_199)"/>
<path fill-rule="evenodd" clip-rule="evenodd" d="M184 279C186.761 279 189 281.239 189 284L189 306.5C189 309.261 186.761 311.5 184 311.5C181.239 311.5 179 309.261 179 306.5L179 284C179 281.239 181.239 279 184 279Z" fill="url(#paint7_linear_446_199)"/>
<path fill-rule="evenodd" clip-rule="evenodd" d="M224 54C226.761 54 229 56.2386 229 59L229 79C229 81.7614 226.761 84 224 84C221.239 84 219 81.7614 219 79L219 59C219 56.2386 221.239 54 224 54Z" fill="url(#paint8_linear_446_199)"/>
<path fill-rule="evenodd" clip-rule="evenodd" d="M224 281.5C226.761 281.5 229 283.739 229 286.5L229 306.5C229 309.261 226.761 311.5 224 311.5C221.239 311.5 219 309.261 219 306.5L219 286.5C219 283.739 221.239 281.5 224 281.5Z" fill="url(#paint9_linear_446_199)"/>
<circle cx="262.75" cy="115.25" r="11.25" fill="white"/>
</g>
<defs>
<filter id="filter0_i_446_199" x="0" y="0" width="368" height="368" filterUnits="userSpaceOnUse" color-interpolation-filters="sRGB">
<feFlood flood-opacity="0" result="BackgroundImageFix"/>
<feBlend mode="normal" in="SourceGraphic" in2="BackgroundImageFix" result="shape"/>
<feColorMatrix in="SourceAlpha" type="matrix" values="0 0 0 0 0 0 0 0 0 0 0 0 0 0 0 0 0 0 127 0" result="hardAlpha"/>
<feOffset/>
<feGaussianBlur stdDeviation="1.5"/>
<feComposite in2="hardAlpha" operator="arithmetic" k2="-1" k3="1"/>
<feColorMatrix type="matrix" values="0 0 0 0 1 0 0 0 0 1 0 0 0 0 1 0 0 0 0.8 0"/>
<feBlend mode="normal" in2="shape" result="effect1_innerShadow_446_199"/>
</filter>
<linearGradient id="paint0_linear_446_199" x1="314" y1="184" x2="154" y2="184" gradientUnits="userSpaceOnUse">
<stop stop-color="#F3F8FF"/>
<stop offset="0.505208" stop-color="#B9D9FF"/>
<stop offset="1" stop-color="#96C6FF"/>
</linearGradient>
<linearGradient id="paint1_linear_446_199" x1="139" y1="54" x2="139" y2="94" gradientUnits="userSpaceOnUse">
<stop stop-color="#F0F7FF"/>
<stop offset="1" stop-color="#9ECBFF"/>
</linearGradient>
<linearGradient id="paint2_linear_446_199" x1="139" y1="274" x2="139" y2="314" gradientUnits="userSpaceOnUse">
<stop stop-color="#9ECBFF"/>
<stop offset="1" stop-color="#F0F7FF"/>
</linearGradient>
<linearGradient id="paint3_linear_446_199" x1="54" y1="146.5" x2="84" y2="146.5" gradientUnits="userSpaceOnUse">
<stop stop-color="#F0F7FF"/>
<stop offset="1" stop-color="#9ECBFF"/>
</linearGradient>
<linearGradient id="paint4_linear_446_199" x1="54" y1="186.5" x2="94" y2="186.5" gradientUnits="userSpaceOnUse">
<stop stop-color="#F0F7FF"/>
<stop offset="1" stop-color="#9ECBFF"/>
</linearGradient>
<linearGradient id="paint5_linear_446_199" x1="54" y1="226.5" x2="89" y2="226.5" gradientUnits="userSpaceOnUse">
<stop stop-color="#F0F7FF"/>
<stop offset="1" stop-color="#9ECBFF"/>
</linearGradient>
<linearGradient id="paint6_linear_446_199" x1="179" y1="54" x2="179" y2="86.5" gradientUnits="userSpaceOnUse">
<stop stop-color="#F0F7FF"/>
<stop offset="1" stop-color="#9ECBFF"/>
</linearGradient>
<linearGradient id="paint7_linear_446_199" x1="179" y1="279" x2="179" y2="311.5" gradientUnits="userSpaceOnUse">
<stop stop-color="#9ECBFF"/>
<stop offset="1" stop-color="#F0F7FF"/>
</linearGradient>
<linearGradient id="paint8_linear_446_199" x1="219" y1="54" x2="219" y2="84" gradientUnits="userSpaceOnUse">
<stop stop-color="#F0F7FF"/>
<stop offset="1" stop-color="#9ECBFF"/>
</linearGradient>
<linearGradient id="paint9_linear_446_199" x1="219" y1="281.5" x2="219" y2="311.5" gradientUnits="userSpaceOnUse">
<stop stop-color="#9ECBFF"/>
<stop offset="1" stop-color="#F0F7FF"/>
</linearGradient>
</defs>
</svg>
