<svg width="142" height="129" viewBox="0 0 142 129" fill="none" xmlns="http://www.w3.org/2000/svg">
<g filter="url(#filter0_i_22_12)">
<mask id="mask0_22_12" style="mask-type:luminance" maskUnits="userSpaceOnUse" x="0" y="0" width="142" height="129">
<path d="M142 0H0V128.947H142V0Z" fill="white"/>
</mask>
<g mask="url(#mask0_22_12)">
<path d="M106.503 128.947V119.737C106.503 118.527 106.273 117.329 105.827 116.212C105.381 115.095 104.728 114.079 103.904 113.223C103.079 112.368 102.1 111.69 101.024 111.227C99.9472 110.764 98.7931 110.526 97.6276 110.526H62.1251C50.3561 110.526 39.0691 105.674 30.747 97.0375C22.425 88.4009 17.7497 76.6876 17.7495 64.4736C17.7495 58.4258 18.8973 52.4374 21.1274 46.85C23.3575 41.2626 26.6262 36.1858 30.7469 31.9094C34.8676 27.633 39.7595 24.2409 45.1434 21.9266C50.5272 19.6122 56.2977 18.4212 62.1251 18.4212H97.625C98.7904 18.4216 99.9452 18.1836 101.022 17.7209C102.099 17.2582 103.078 16.5798 103.902 15.7245C104.727 14.8691 105.381 13.8536 105.827 12.736C106.273 11.6183 106.503 10.4204 106.503 9.21061V0H62.1271C53.9688 -4.85947e-10 45.8903 1.66766 38.3529 4.90777C30.8156 8.14788 23.967 12.897 18.1982 18.8839C12.4294 24.8709 7.85334 31.9784 4.73135 39.8007C1.60934 47.623 0.00250658 56.0069 0.002594 64.4736C0.00259399 81.5727 6.5478 97.9721 18.1984 110.063C29.849 122.154 45.6506 128.947 62.1271 128.947H106.503Z" fill="url(#paint0_linear_22_12)"/>
<path d="M35.4998 64.4736C35.4998 71.8019 38.3049 78.8297 43.2979 84.0111C48.2908 89.1932 55.0628 92.1041 62.1239 92.1041H106.503C111.211 92.1041 115.725 94.0451 119.053 97.4996C122.382 100.954 124.252 105.64 124.252 110.525V128.947H142.003V110.526C142.003 100.755 138.263 91.3843 131.605 84.4746C124.947 77.5656 115.918 73.6842 106.503 73.6842H62.1252C59.7714 73.6842 57.514 72.7137 55.8495 70.9868C54.1851 69.2592 53.2501 66.9164 53.2501 64.4736C53.2501 62.0308 54.1851 59.6881 55.8495 57.9607C57.514 56.2334 59.7714 55.263 62.1252 55.263H106.503C115.918 55.263 124.947 51.3815 131.605 44.4723C138.263 37.5631 142.003 28.1923 142.003 18.4212V0H124.25V18.4212C124.25 23.3062 122.38 27.9911 119.052 31.4455C115.724 34.9 111.21 36.841 106.503 36.8418H62.1252C58.6287 36.8416 55.1663 37.5561 51.9359 38.9447C48.7055 40.3333 45.7702 42.3687 43.2979 44.9345C40.8254 47.5004 38.8642 50.5466 37.5262 53.8992C36.1882 57.2517 35.4997 60.8449 35.4998 64.4736Z" fill="url(#paint1_linear_22_12)"/>
</g>
</g>
<defs>
<filter id="filter0_i_22_12" x="0.00259399" y="0" width="141.997" height="132.947" filterUnits="userSpaceOnUse" color-interpolation-filters="sRGB">
<feFlood flood-opacity="0" result="BackgroundImageFix"/>
<feBlend mode="normal" in="SourceGraphic" in2="BackgroundImageFix" result="shape"/>
<feColorMatrix in="SourceAlpha" type="matrix" values="0 0 0 0 0 0 0 0 0 0 0 0 0 0 0 0 0 0 127 0" result="hardAlpha"/>
<feOffset dy="4"/>
<feGaussianBlur stdDeviation="2"/>
<feComposite in2="hardAlpha" operator="arithmetic" k2="-1" k3="1"/>
<feColorMatrix type="matrix" values="0 0 0 0 0 0 0 0 0 0 0 0 0 0 0 0 0 0 0.25 0"/>
<feBlend mode="normal" in2="shape" result="effect1_innerShadow_22_12"/>
</filter>
<linearGradient id="paint0_linear_22_12" x1="16.0841" y1="64.4736" x2="152.724" y2="64.4736" gradientUnits="userSpaceOnUse">
<stop stop-color="#06B6D4"/>
<stop offset="1" stop-color="#F3F4F6"/>
</linearGradient>
<linearGradient id="paint1_linear_22_12" x1="16.0098" y1="64.4733" x2="152.759" y2="64.4733" gradientUnits="userSpaceOnUse">
<stop stop-color="#06B6D4"/>
<stop offset="1" stop-color="#F3F4F6"/>
</linearGradient>
</defs>
</svg>
