<svg width="723" height="173" viewBox="0 0 723 173" fill="none" xmlns="http://www.w3.org/2000/svg">
<g filter="url(#filter0_i_22_11)">
<mask id="mask0_22_11" style="mask-type:luminance" maskUnits="userSpaceOnUse" x="23" y="19" width="142" height="130">
<path d="M165 19.4382H23V148.385H165V19.4382Z" fill="white"/>
</mask>
<g mask="url(#mask0_22_11)">
<path d="M129.503 148.385V139.175C129.503 137.965 129.273 136.767 128.827 135.65C128.381 134.533 127.728 133.517 126.904 132.662C126.079 131.806 125.1 131.128 124.024 130.665C122.947 130.202 121.793 129.964 120.628 129.964H85.1251C73.3561 129.964 62.0691 125.112 53.747 116.476C45.425 107.839 40.7497 96.1258 40.7495 83.9118C40.7495 77.864 41.8974 71.8756 44.1275 66.2882C46.3575 60.7008 49.6262 55.624 53.7469 51.3476C57.8676 47.0712 62.7595 43.6791 68.1434 41.3648C73.5272 39.0504 79.2977 37.8594 85.1251 37.8594H120.625C121.79 37.8598 122.945 37.6218 124.022 37.1591C125.099 36.6964 126.078 36.018 126.902 35.1627C127.727 34.3073 128.381 33.2918 128.827 32.1742C129.273 31.0565 129.503 29.8586 129.503 28.6488V19.4382H85.1271C76.9688 19.4382 68.8903 21.1059 61.3529 24.346C53.8156 27.5861 46.967 32.3352 41.1983 38.3221C35.4294 44.3091 30.8534 51.4166 27.7314 59.2389C24.6094 67.0612 23.0025 75.4451 23.0026 83.9118C23.0026 101.011 29.5478 117.41 41.1984 129.501C52.849 141.592 68.6507 148.385 85.1271 148.385H129.503Z" fill="url(#paint0_linear_22_11)"/>
<path d="M58.4999 83.9118C58.4999 91.2401 61.3049 98.2679 66.2979 103.449C71.2909 108.631 78.0628 111.542 85.1239 111.542H129.503C134.211 111.542 138.725 113.483 142.053 116.938C145.382 120.392 147.252 125.078 147.252 129.963V148.385H165.003V129.964C165.003 120.193 161.263 110.822 154.605 103.913C147.947 97.0038 138.918 93.1224 129.503 93.1224H85.1253C82.7714 93.1224 80.514 92.1519 78.8496 90.425C77.1852 88.6974 76.2501 86.3546 76.2501 83.9118C76.2501 81.469 77.1852 79.1263 78.8496 77.3989C80.514 75.6716 82.7714 74.7012 85.1253 74.7012H129.503C138.918 74.7012 147.947 70.8197 154.605 63.9105C161.263 57.0013 165.003 47.6305 165.003 37.8594V19.4382H147.25V37.8594C147.25 42.7444 145.38 47.4293 142.052 50.8837C138.724 54.3382 134.21 56.2792 129.503 56.28H85.1253C81.6287 56.2798 78.1664 56.9943 74.936 58.3829C71.7055 59.7715 68.7703 61.8069 66.2979 64.3727C63.8255 66.9386 61.8643 69.9848 60.5263 73.3374C59.1883 76.6899 58.4997 80.2831 58.4999 83.9118Z" fill="url(#paint1_linear_22_11)"/>
</g>
</g>
<g filter="url(#filter1_i_22_11)">
<path d="M222 55.9C211.667 55.9 206.5 65.8667 206.5 85.8V93.7C206.5 103.167 207.867 110.6 210.6 116C213.333 121.333 217.367 124 222.7 124C230.033 124 236.767 116.867 242.9 102.6H244.7L244 124.9H242.9C242.5 124.167 242.133 123.667 241.8 123.4C241.467 123.067 240.967 122.9 240.3 122.9C239.7 122.9 237.3 123.433 233.1 124.5C228.9 125.5 224.633 126 220.3 126C209.433 126 201 123.067 195 117.2C189.067 111.333 186.1 102.533 186.1 90.8C186.1 79 189.2 69.9 195.4 63.5C201.667 57.1 210.067 53.9 220.6 53.9C224.667 53.9 228.633 54.4333 232.5 55.5C236.433 56.5 238.733 57 239.4 57C240.067 57 240.567 56.8667 240.9 56.6C241.233 56.2667 241.6 55.7333 242 55H243.1L243.9 76.7H242.1C239.1 69.9667 236 64.8333 232.8 61.3C229.667 57.7 226.067 55.9 222 55.9ZM271.743 70.5C268.21 70.5 265.676 69.6 264.143 67.8C262.676 66 261.943 63.7667 261.943 61.1C261.943 58.4333 262.743 56.2333 264.343 54.5C266.01 52.7667 268.51 51.9 271.843 51.9C275.176 51.9 277.71 52.7 279.443 54.3C281.176 55.8333 282.043 58.0667 282.043 61C282.043 63.8667 281.21 66.1667 279.543 67.9C277.876 69.6333 275.276 70.5 271.743 70.5ZM256.643 77.4H281.143V123.2H286.743V125H257.043V123.2H262.543V79.2H256.643V77.4ZM289.754 79.2V77.4H319.654V79.2H313.354L325.354 112.4L336.154 79.2H329.454V77.4H342.954V79.2H338.554L323.754 125H312.354L293.854 79.2H289.754ZM372.738 126C364.138 126 357.671 123.8 353.338 119.4C349.071 114.933 346.938 108.767 346.938 100.9C346.938 92.9667 349.338 86.9 354.138 82.7C359.004 78.5 365.171 76.4 372.638 76.4C387.771 76.4 395.038 84 394.438 99.2H366.238V103.1C366.238 109.633 367.071 114.567 368.738 117.9C370.404 121.233 373.304 122.9 377.438 122.9C385.171 122.9 390.238 118.767 392.638 110.5L394.438 110.8C393.171 115.6 390.871 119.333 387.538 122C384.271 124.667 379.338 126 372.738 126ZM366.338 97.2H376.638V92.3C376.638 86.9 376.304 83.2333 375.638 81.3C375.038 79.3 373.771 78.3 371.837 78.3C369.971 78.3 368.571 79.3667 367.638 81.5C366.771 83.5667 366.338 87.1667 366.338 92.3V97.2ZM403.2 77.4H427.3V86.6C428.367 83.5333 430 81.0667 432.2 79.2C434.4 77.3333 437.733 76.4 442.2 76.4C452.533 76.4 457.7 81.9667 457.7 93.1V123.2H463.3V125H435V123.2H439.1V90.7C439.1 86.7 438.833 84.1333 438.3 83C437.767 81.8 436.8 81.2 435.4 81.2C433.267 81.2 431.367 82.6 429.7 85.4C428.1 88.2 427.3 91.6 427.3 95.6V123.2H431.6V125H403.2V123.2H408.7V79.2H403.2V77.4ZM532.221 55L533.221 80.1H531.321C528.388 71.2333 525.788 65.2 523.521 62C521.254 58.7333 517.988 57.1 513.721 57.1H512.521V122.9H521.021V125H484.521V122.9H493.021V57.1H491.721C487.454 57.1 484.154 58.8 481.821 62.2C479.488 65.5333 476.921 71.5 474.121 80.1H472.221L473.221 55H532.221ZM563.226 126C554.626 126 548.159 123.8 543.826 119.4C539.559 114.933 537.426 108.767 537.426 100.9C537.426 92.9667 539.826 86.9 544.626 82.7C549.492 78.5 555.659 76.4 563.126 76.4C578.259 76.4 585.526 84 584.926 99.2H556.726V103.1C556.726 109.633 557.559 114.567 559.226 117.9C560.892 121.233 563.792 122.9 567.926 122.9C575.659 122.9 580.726 118.767 583.126 110.5L584.926 110.8C583.659 115.6 581.359 119.333 578.026 122C574.759 124.667 569.826 126 563.226 126ZM556.826 97.2H567.126V92.3C567.126 86.9 566.792 83.2333 566.126 81.3C565.526 79.3 564.259 78.3 562.326 78.3C560.459 78.3 559.059 79.3667 558.126 81.5C557.259 83.5667 556.826 87.1667 556.826 92.3V97.2ZM621.488 78.2C618.555 78.2 616.455 79.8 615.188 83C613.922 86.2 613.288 91.5 613.288 98.9V104.1C613.288 110.7 614.022 115.433 615.488 118.3C616.955 121.167 619.655 122.6 623.588 122.6C627.522 122.6 630.655 121.267 632.988 118.6C635.322 115.933 636.822 112.9 637.488 109.5L639.288 109.7C638.022 115.433 635.688 119.567 632.288 122.1C628.822 124.7 624.055 126 617.988 126C610.255 126 604.322 123.933 600.188 119.8C596.055 115.6 593.988 109.5 593.988 101.5C593.988 93.4333 596.322 87.2333 600.988 82.9C605.722 78.5667 612.288 76.4 620.688 76.4C626.622 76.4 631.155 77.5667 634.288 79.9C637.422 82.1667 638.988 85.0333 638.988 88.5C638.988 91.9667 638.222 94.5 636.688 96.1C635.222 97.7 633.155 98.5 630.488 98.5C627.888 98.5 625.788 97.8 624.188 96.4C622.588 95 621.788 92.9333 621.788 90.2C621.788 89 621.955 87.8 622.288 86.6H625.588C626.055 85.2667 626.288 84.0667 626.288 83C626.288 79.8 624.688 78.2 621.488 78.2ZM645.852 50H669.952V86.6C671.018 83.5333 672.652 81.0667 674.852 79.2C677.052 77.3333 680.385 76.4 684.852 76.4C695.185 76.4 700.352 81.9667 700.352 93.1V123.2H705.952V125H677.652V123.2H681.752V90.7C681.752 86.7 681.485 84.1333 680.952 83C680.418 81.8 679.452 81.2 678.052 81.2C675.918 81.2 674.018 82.6 672.352 85.4C670.752 88.2 669.952 91.6 669.952 95.6V123.2H674.252V125H645.852V123.2H651.352V51.8H645.852V50Z" fill="#F54A48"/>
<path d="M222 55.9C211.667 55.9 206.5 65.8667 206.5 85.8V93.7C206.5 103.167 207.867 110.6 210.6 116C213.333 121.333 217.367 124 222.7 124C230.033 124 236.767 116.867 242.9 102.6H244.7L244 124.9H242.9C242.5 124.167 242.133 123.667 241.8 123.4C241.467 123.067 240.967 122.9 240.3 122.9C239.7 122.9 237.3 123.433 233.1 124.5C228.9 125.5 224.633 126 220.3 126C209.433 126 201 123.067 195 117.2C189.067 111.333 186.1 102.533 186.1 90.8C186.1 79 189.2 69.9 195.4 63.5C201.667 57.1 210.067 53.9 220.6 53.9C224.667 53.9 228.633 54.4333 232.5 55.5C236.433 56.5 238.733 57 239.4 57C240.067 57 240.567 56.8667 240.9 56.6C241.233 56.2667 241.6 55.7333 242 55H243.1L243.9 76.7H242.1C239.1 69.9667 236 64.8333 232.8 61.3C229.667 57.7 226.067 55.9 222 55.9ZM271.743 70.5C268.21 70.5 265.676 69.6 264.143 67.8C262.676 66 261.943 63.7667 261.943 61.1C261.943 58.4333 262.743 56.2333 264.343 54.5C266.01 52.7667 268.51 51.9 271.843 51.9C275.176 51.9 277.71 52.7 279.443 54.3C281.176 55.8333 282.043 58.0667 282.043 61C282.043 63.8667 281.21 66.1667 279.543 67.9C277.876 69.6333 275.276 70.5 271.743 70.5ZM256.643 77.4H281.143V123.2H286.743V125H257.043V123.2H262.543V79.2H256.643V77.4ZM289.754 79.2V77.4H319.654V79.2H313.354L325.354 112.4L336.154 79.2H329.454V77.4H342.954V79.2H338.554L323.754 125H312.354L293.854 79.2H289.754ZM372.738 126C364.138 126 357.671 123.8 353.338 119.4C349.071 114.933 346.938 108.767 346.938 100.9C346.938 92.9667 349.338 86.9 354.138 82.7C359.004 78.5 365.171 76.4 372.638 76.4C387.771 76.4 395.038 84 394.438 99.2H366.238V103.1C366.238 109.633 367.071 114.567 368.738 117.9C370.404 121.233 373.304 122.9 377.438 122.9C385.171 122.9 390.238 118.767 392.638 110.5L394.438 110.8C393.171 115.6 390.871 119.333 387.538 122C384.271 124.667 379.338 126 372.738 126ZM366.338 97.2H376.638V92.3C376.638 86.9 376.304 83.2333 375.638 81.3C375.038 79.3 373.771 78.3 371.837 78.3C369.971 78.3 368.571 79.3667 367.638 81.5C366.771 83.5667 366.338 87.1667 366.338 92.3V97.2ZM403.2 77.4H427.3V86.6C428.367 83.5333 430 81.0667 432.2 79.2C434.4 77.3333 437.733 76.4 442.2 76.4C452.533 76.4 457.7 81.9667 457.7 93.1V123.2H463.3V125H435V123.2H439.1V90.7C439.1 86.7 438.833 84.1333 438.3 83C437.767 81.8 436.8 81.2 435.4 81.2C433.267 81.2 431.367 82.6 429.7 85.4C428.1 88.2 427.3 91.6 427.3 95.6V123.2H431.6V125H403.2V123.2H408.7V79.2H403.2V77.4ZM532.221 55L533.221 80.1H531.321C528.388 71.2333 525.788 65.2 523.521 62C521.254 58.7333 517.988 57.1 513.721 57.1H512.521V122.9H521.021V125H484.521V122.9H493.021V57.1H491.721C487.454 57.1 484.154 58.8 481.821 62.2C479.488 65.5333 476.921 71.5 474.121 80.1H472.221L473.221 55H532.221ZM563.226 126C554.626 126 548.159 123.8 543.826 119.4C539.559 114.933 537.426 108.767 537.426 100.9C537.426 92.9667 539.826 86.9 544.626 82.7C549.492 78.5 555.659 76.4 563.126 76.4C578.259 76.4 585.526 84 584.926 99.2H556.726V103.1C556.726 109.633 557.559 114.567 559.226 117.9C560.892 121.233 563.792 122.9 567.926 122.9C575.659 122.9 580.726 118.767 583.126 110.5L584.926 110.8C583.659 115.6 581.359 119.333 578.026 122C574.759 124.667 569.826 126 563.226 126ZM556.826 97.2H567.126V92.3C567.126 86.9 566.792 83.2333 566.126 81.3C565.526 79.3 564.259 78.3 562.326 78.3C560.459 78.3 559.059 79.3667 558.126 81.5C557.259 83.5667 556.826 87.1667 556.826 92.3V97.2ZM621.488 78.2C618.555 78.2 616.455 79.8 615.188 83C613.922 86.2 613.288 91.5 613.288 98.9V104.1C613.288 110.7 614.022 115.433 615.488 118.3C616.955 121.167 619.655 122.6 623.588 122.6C627.522 122.6 630.655 121.267 632.988 118.6C635.322 115.933 636.822 112.9 637.488 109.5L639.288 109.7C638.022 115.433 635.688 119.567 632.288 122.1C628.822 124.7 624.055 126 617.988 126C610.255 126 604.322 123.933 600.188 119.8C596.055 115.6 593.988 109.5 593.988 101.5C593.988 93.4333 596.322 87.2333 600.988 82.9C605.722 78.5667 612.288 76.4 620.688 76.4C626.622 76.4 631.155 77.5667 634.288 79.9C637.422 82.1667 638.988 85.0333 638.988 88.5C638.988 91.9667 638.222 94.5 636.688 96.1C635.222 97.7 633.155 98.5 630.488 98.5C627.888 98.5 625.788 97.8 624.188 96.4C622.588 95 621.788 92.9333 621.788 90.2C621.788 89 621.955 87.8 622.288 86.6H625.588C626.055 85.2667 626.288 84.0667 626.288 83C626.288 79.8 624.688 78.2 621.488 78.2ZM645.852 50H669.952V86.6C671.018 83.5333 672.652 81.0667 674.852 79.2C677.052 77.3333 680.385 76.4 684.852 76.4C695.185 76.4 700.352 81.9667 700.352 93.1V123.2H705.952V125H677.652V123.2H681.752V90.7C681.752 86.7 681.485 84.1333 680.952 83C680.418 81.8 679.452 81.2 678.052 81.2C675.918 81.2 674.018 82.6 672.352 85.4C670.752 88.2 669.952 91.6 669.952 95.6V123.2H674.252V125H645.852V123.2H651.352V51.8H645.852V50Z" fill="#FA982F" fill-opacity="0.5"/>
</g>
<defs>
<filter id="filter0_i_22_11" x="23.0026" y="19.4382" width="141.997" height="132.947" filterUnits="userSpaceOnUse" color-interpolation-filters="sRGB">
<feFlood flood-opacity="0" result="BackgroundImageFix"/>
<feBlend mode="normal" in="SourceGraphic" in2="BackgroundImageFix" result="shape"/>
<feColorMatrix in="SourceAlpha" type="matrix" values="0 0 0 0 0 0 0 0 0 0 0 0 0 0 0 0 0 0 127 0" result="hardAlpha"/>
<feOffset dy="4"/>
<feGaussianBlur stdDeviation="2"/>
<feComposite in2="hardAlpha" operator="arithmetic" k2="-1" k3="1"/>
<feColorMatrix type="matrix" values="0 0 0 0 0 0 0 0 0 0 0 0 0 0 0 0 0 0 0.25 0"/>
<feBlend mode="normal" in2="shape" result="effect1_innerShadow_22_11"/>
</filter>
<filter id="filter1_i_22_11" x="186.1" y="50" width="519.852" height="80" filterUnits="userSpaceOnUse" color-interpolation-filters="sRGB">
<feFlood flood-opacity="0" result="BackgroundImageFix"/>
<feBlend mode="normal" in="SourceGraphic" in2="BackgroundImageFix" result="shape"/>
<feColorMatrix in="SourceAlpha" type="matrix" values="0 0 0 0 0 0 0 0 0 0 0 0 0 0 0 0 0 0 127 0" result="hardAlpha"/>
<feOffset dy="4"/>
<feGaussianBlur stdDeviation="2"/>
<feComposite in2="hardAlpha" operator="arithmetic" k2="-1" k3="1"/>
<feColorMatrix type="matrix" values="0 0 0 0 0 0 0 0 0 0 0 0 0 0 0 0 0 0 0.25 0"/>
<feBlend mode="normal" in2="shape" result="effect1_innerShadow_22_11"/>
</filter>
<linearGradient id="paint0_linear_22_11" x1="39.0841" y1="83.9118" x2="175.724" y2="83.9118" gradientUnits="userSpaceOnUse">
<stop stop-color="#F54A48"/>
<stop offset="1" stop-color="#FA982F"/>
</linearGradient>
<linearGradient id="paint1_linear_22_11" x1="39.0099" y1="83.9115" x2="175.759" y2="83.9115" gradientUnits="userSpaceOnUse">
<stop stop-color="#F54A48"/>
<stop offset="1" stop-color="#FA982F"/>
</linearGradient>
</defs>
</svg>
