<svg width="142" height="130" viewBox="0 0 142 130" fill="none" xmlns="http://www.w3.org/2000/svg">
<g filter="url(#filter0_i_22_12)">
<mask id="mask0_22_12" style="mask-type:luminance" maskUnits="userSpaceOnUse" x="0" y="0" width="142" height="130">
<path d="M142 0.438202H0V129.385H142V0.438202Z" fill="white"/>
</mask>
<g mask="url(#mask0_22_12)">
<path d="M106.503 129.385V120.175C106.503 118.965 106.273 117.767 105.827 116.65C105.381 115.533 104.728 114.517 103.904 113.662C103.079 112.806 102.1 112.128 101.024 111.665C99.9473 111.202 98.7931 110.964 97.6276 110.964H62.1251C50.3561 110.964 39.0691 106.112 30.747 97.4757C22.425 88.8391 17.7497 77.1258 17.7495 64.9118C17.7495 58.864 18.8974 52.8756 21.1275 47.2882C23.3575 41.7008 26.6262 36.624 30.7469 32.3476C34.8676 28.0712 39.7595 24.6791 45.1434 22.3648C50.5272 20.0504 56.2977 18.8594 62.1251 18.8594H97.625C98.7904 18.8598 99.9453 18.6218 101.022 18.1591C102.099 17.6964 103.078 17.018 103.902 16.1627C104.727 15.3073 105.381 14.2918 105.827 13.1742C106.273 12.0565 106.503 10.8586 106.503 9.64882V0.438202H62.1271C53.9688 0.438202 45.8903 2.10587 38.3529 5.34597C30.8156 8.58608 23.967 13.3352 18.1983 19.3221C12.4294 25.3091 7.85337 32.4166 4.73138 40.2389C1.60937 48.0612 0.0025371 56.4451 0.00262452 64.9118C0.00262451 82.0109 6.54783 98.4103 18.1984 110.501C29.849 122.592 45.6507 129.385 62.1271 129.385H106.503Z" fill="url(#paint0_linear_22_12)"/>
<path d="M35.4999 64.9118C35.4999 72.2401 38.3049 79.2679 43.2979 84.4493C48.2909 89.6314 55.0628 92.5423 62.1239 92.5423H106.503C111.211 92.5423 115.725 94.4833 119.053 97.9378C122.382 101.392 124.252 106.078 124.252 110.963V129.385H142.003V110.964C142.003 101.193 138.263 91.8225 131.605 84.9128C124.947 78.0038 115.918 74.1224 106.503 74.1224H62.1253C59.7714 74.1224 57.514 73.1519 55.8496 71.425C54.1852 69.6974 53.2501 67.3546 53.2501 64.9118C53.2501 62.469 54.1852 60.1263 55.8496 58.3989C57.514 56.6716 59.7714 55.7012 62.1253 55.7012H106.503C115.918 55.7012 124.947 51.8197 131.605 44.9105C138.263 38.0013 142.003 28.6305 142.003 18.8594V0.438202H124.25V18.8594C124.25 23.7444 122.38 28.4293 119.052 31.8837C115.724 35.3382 111.21 37.2792 106.503 37.28H62.1253C58.6287 37.2798 55.1664 37.9943 51.936 39.3829C48.7055 40.7715 45.7703 42.8069 43.2979 45.3727C40.8255 47.9386 38.8643 50.9848 37.5263 54.3374C36.1883 57.6899 35.4997 61.2831 35.4999 64.9118Z" fill="url(#paint1_linear_22_12)"/>
</g>
</g>
<defs>
<filter id="filter0_i_22_12" x="0.00262451" y="0.438202" width="141.997" height="132.947" filterUnits="userSpaceOnUse" color-interpolation-filters="sRGB">
<feFlood flood-opacity="0" result="BackgroundImageFix"/>
<feBlend mode="normal" in="SourceGraphic" in2="BackgroundImageFix" result="shape"/>
<feColorMatrix in="SourceAlpha" type="matrix" values="0 0 0 0 0 0 0 0 0 0 0 0 0 0 0 0 0 0 127 0" result="hardAlpha"/>
<feOffset dy="4"/>
<feGaussianBlur stdDeviation="2"/>
<feComposite in2="hardAlpha" operator="arithmetic" k2="-1" k3="1"/>
<feColorMatrix type="matrix" values="0 0 0 0 0 0 0 0 0 0 0 0 0 0 0 0 0 0 0.25 0"/>
<feBlend mode="normal" in2="shape" result="effect1_innerShadow_22_12"/>
</filter>
<linearGradient id="paint0_linear_22_12" x1="16.0841" y1="64.9118" x2="152.724" y2="64.9118" gradientUnits="userSpaceOnUse">
<stop stop-color="#F54A48"/>
<stop offset="1" stop-color="#FA982F"/>
</linearGradient>
<linearGradient id="paint1_linear_22_12" x1="16.0099" y1="64.9115" x2="152.759" y2="64.9115" gradientUnits="userSpaceOnUse">
<stop stop-color="#F54A48"/>
<stop offset="1" stop-color="#FA982F"/>
</linearGradient>
</defs>
</svg>
