<svg width="705" height="143" viewBox="0 0 705 143" fill="none" xmlns="http://www.w3.org/2000/svg">
<g filter="url(#filter0_d_30_2)">
<g filter="url(#filter1_b_30_2)">
<mask id="mask0_30_2" style="mask-type:luminance" maskUnits="userSpaceOnUse" x="15" y="2" width="142" height="133">
<path d="M157 2.00004L15 2.00004L15 134.674L157 134.674L157 2.00004Z" fill="white"/>
</mask>
<g mask="url(#mask0_30_2)">
<path d="M121.503 134.674V125.197C121.503 123.953 121.273 122.72 120.827 121.57C120.381 120.421 119.728 119.376 118.904 118.496C118.079 117.616 117.101 116.918 116.024 116.442C114.947 115.966 113.793 115.72 112.628 115.72L77.1252 115.72C65.3562 115.72 54.0692 110.728 45.7471 101.842C37.4251 92.9559 32.7498 80.9041 32.7496 68.337C32.7496 62.1145 33.8974 55.9529 36.1275 50.2041C38.3576 44.4552 41.6263 39.2317 45.747 34.8317C49.8676 30.4317 54.7595 26.9415 60.1435 24.5603C65.5273 22.1791 71.2977 20.9536 77.1252 20.9537L112.625 20.9537C113.791 20.954 114.945 20.7092 116.022 20.2331C117.099 19.757 118.078 19.059 118.902 18.179C119.727 17.2989 120.381 16.2541 120.827 15.1041C121.273 13.9542 121.503 12.7216 121.503 11.4769V2.00004L77.1272 2.00004C68.9689 2.00004 60.8904 3.7159 53.353 7.04965C45.8157 10.3834 38.9671 15.2698 33.1983 21.4297C27.4295 27.5897 22.8534 34.9027 19.7314 42.9511C16.6094 50.9994 15.0026 59.6256 15.0027 68.337C15.0027 85.9303 21.5479 102.804 33.1985 115.244C44.8491 127.685 60.6507 134.674 77.1272 134.674H121.503Z" fill="url(#paint0_linear_30_2)"/>
<path d="M50.5 68.337C50.5 75.8771 53.305 83.1081 58.298 88.4392C63.291 93.7711 70.0629 96.7661 77.124 96.7661L121.503 96.7661C126.211 96.7661 130.725 98.7632 134.054 102.318C137.382 105.872 139.253 110.693 139.253 115.72V134.673H157.003V115.72C157.003 105.667 153.263 96.0255 146.605 88.9161C139.947 81.8074 130.918 77.8139 121.503 77.8139L77.1254 77.8139C74.7715 77.8139 72.5142 76.8153 70.8497 75.0385C69.1853 73.2609 68.2502 70.8504 68.2502 68.337C68.2502 65.8236 69.1853 63.4132 70.8497 61.6359C72.5142 59.8587 74.7715 58.8602 77.1254 58.8602L121.503 58.8602C130.918 58.8602 139.947 54.8665 146.605 47.7576C153.263 40.6488 157.003 31.0071 157.003 20.9537V2.00004L139.25 2.00004V20.9537C139.25 25.9798 137.38 30.8001 134.052 34.3544C130.724 37.9087 126.21 39.9058 121.503 39.9066L77.1254 39.9066C73.6288 39.9064 70.1665 40.6416 66.9361 42.0703C63.7057 43.499 60.7704 45.5932 58.298 48.2332C55.8256 50.8733 53.8644 54.0075 52.5264 57.457C51.1884 60.9064 50.4999 64.6035 50.5 68.337Z" fill="url(#paint1_linear_30_2)"/>
</g>
</g>
<g filter="url(#filter2_b_30_2)">
<path d="M224 36.9C213.667 36.9 208.5 46.8667 208.5 66.8V74.7C208.5 84.1667 209.867 91.6 212.6 97C215.333 102.333 219.367 105 224.7 105C232.033 105 238.767 97.8667 244.9 83.6H246.7L246 105.9H244.9C244.5 105.167 244.133 104.667 243.8 104.4C243.467 104.067 242.967 103.9 242.3 103.9C241.7 103.9 239.3 104.433 235.1 105.5C230.9 106.5 226.633 107 222.3 107C211.433 107 203 104.067 197 98.2C191.067 92.3333 188.1 83.5333 188.1 71.8C188.1 60 191.2 50.9 197.4 44.5C203.667 38.1 212.067 34.9 222.6 34.9C226.667 34.9 230.633 35.4333 234.5 36.5C238.433 37.5 240.733 38 241.4 38C242.067 38 242.567 37.8667 242.9 37.6C243.233 37.2667 243.6 36.7333 244 36H245.1L245.9 57.7H244.1C241.1 50.9667 238 45.8333 234.8 42.3C231.667 38.7 228.067 36.9 224 36.9ZM273.743 51.5C270.21 51.5 267.676 50.6 266.143 48.8C264.676 47 263.943 44.7667 263.943 42.1C263.943 39.4333 264.743 37.2333 266.343 35.5C268.01 33.7667 270.51 32.9 273.843 32.9C277.176 32.9 279.71 33.7 281.443 35.3C283.176 36.8333 284.043 39.0667 284.043 42C284.043 44.8667 283.21 47.1667 281.543 48.9C279.876 50.6333 277.276 51.5 273.743 51.5ZM258.643 58.4H283.143V104.2H288.743V106H259.043V104.2H264.543V60.2H258.643V58.4ZM291.754 60.2V58.4H321.654V60.2H315.354L327.354 93.4L338.154 60.2H331.454V58.4H344.954V60.2H340.554L325.754 106H314.354L295.854 60.2H291.754ZM374.738 107C366.138 107 359.671 104.8 355.338 100.4C351.071 95.9333 348.938 89.7667 348.938 81.9C348.938 73.9667 351.338 67.9 356.138 63.7C361.004 59.5 367.171 57.4 374.638 57.4C389.771 57.4 397.038 65 396.438 80.2H368.238V84.1C368.238 90.6333 369.071 95.5667 370.738 98.9C372.404 102.233 375.304 103.9 379.438 103.9C387.171 103.9 392.238 99.7667 394.638 91.5L396.438 91.8C395.171 96.6 392.871 100.333 389.538 103C386.271 105.667 381.338 107 374.738 107ZM368.338 78.2H378.638V73.3C378.638 67.9 378.304 64.2333 377.638 62.3C377.038 60.3 375.771 59.3 373.837 59.3C371.971 59.3 370.571 60.3667 369.638 62.5C368.771 64.5667 368.338 68.1667 368.338 73.3V78.2ZM405.2 58.4H429.3V67.6C430.367 64.5333 432 62.0667 434.2 60.2C436.4 58.3333 439.733 57.4 444.2 57.4C454.533 57.4 459.7 62.9667 459.7 74.1V104.2H465.3V106H437V104.2H441.1V71.7C441.1 67.7 440.833 65.1333 440.3 64C439.767 62.8 438.8 62.2 437.4 62.2C435.267 62.2 433.367 63.6 431.7 66.4C430.1 69.2 429.3 72.6 429.3 76.6V104.2H433.6V106H405.2V104.2H410.7V60.2H405.2V58.4ZM476.133 91.7V60.2H470.633V58.4H476.133V45.5L494.733 40.9V58.4H507.733V60.2H494.733V93.9C494.733 97.0333 495.033 99.3333 495.633 100.8C496.299 102.267 497.633 103 499.633 103C501.633 103 503.366 102 504.833 100C506.366 98 507.366 95.2667 507.833 91.8L509.533 92C508.999 96.6 507.533 100.267 505.133 103C502.733 105.667 498.766 107 493.233 107C487.699 107 483.466 105.9 480.533 103.7C477.599 101.5 476.133 97.5 476.133 91.7ZM541.788 107C533.188 107 526.722 104.8 522.388 100.4C518.122 95.9333 515.988 89.7667 515.988 81.9C515.988 73.9667 518.388 67.9 523.188 63.7C528.055 59.5 534.222 57.4 541.688 57.4C556.822 57.4 564.088 65 563.488 80.2H535.288V84.1C535.288 90.6333 536.122 95.5667 537.788 98.9C539.455 102.233 542.355 103.9 546.488 103.9C554.222 103.9 559.288 99.7667 561.688 91.5L563.488 91.8C562.222 96.6 559.922 100.333 556.588 103C553.322 105.667 548.388 107 541.788 107ZM535.388 78.2H545.688V73.3C545.688 67.9 545.355 64.2333 544.688 62.3C544.088 60.3 542.822 59.3 540.888 59.3C539.022 59.3 537.622 60.3667 536.688 62.5C535.822 64.5667 535.388 68.1667 535.388 73.3V78.2ZM600.051 59.2C597.117 59.2 595.017 60.8 593.751 64C592.484 67.2 591.851 72.5 591.851 79.9V85.1C591.851 91.7 592.584 96.4333 594.051 99.3C595.517 102.167 598.217 103.6 602.151 103.6C606.084 103.6 609.217 102.267 611.551 99.6C613.884 96.9333 615.384 93.9 616.051 90.5L617.851 90.7C616.584 96.4333 614.251 100.567 610.851 103.1C607.384 105.7 602.617 107 596.551 107C588.817 107 582.884 104.933 578.751 100.8C574.617 96.6 572.551 90.5 572.551 82.5C572.551 74.4333 574.884 68.2333 579.551 63.9C584.284 59.5667 590.851 57.4 599.251 57.4C605.184 57.4 609.717 58.5667 612.851 60.9C615.984 63.1667 617.551 66.0333 617.551 69.5C617.551 72.9667 616.784 75.5 615.251 77.1C613.784 78.7 611.717 79.5 609.051 79.5C606.451 79.5 604.351 78.8 602.751 77.4C601.151 76 600.351 73.9333 600.351 71.2C600.351 70 600.517 68.8 600.851 67.6H604.151C604.617 66.2667 604.851 65.0667 604.851 64C604.851 60.8 603.251 59.2 600.051 59.2ZM624.414 31H648.514V67.6C649.581 64.5333 651.214 62.0667 653.414 60.2C655.614 58.3333 658.947 57.4 663.414 57.4C673.747 57.4 678.914 62.9667 678.914 74.1V104.2H684.514V106H656.214V104.2H660.314V71.7C660.314 67.7 660.047 65.1333 659.514 64C658.981 62.8 658.014 62.2 656.614 62.2C654.481 62.2 652.581 63.6 650.914 66.4C649.314 69.2 648.514 72.6 648.514 76.6V104.2H652.814V106H624.414V104.2H629.914V32.8H624.414V31Z" fill="url(#paint2_linear_30_2)"/>
</g>
</g>
<defs>
<filter id="filter0_d_30_2" x="-4" y="0" width="713" height="145" filterUnits="userSpaceOnUse" color-interpolation-filters="sRGB">
<feFlood flood-opacity="0" result="BackgroundImageFix"/>
<feColorMatrix in="SourceAlpha" type="matrix" values="0 0 0 0 0 0 0 0 0 0 0 0 0 0 0 0 0 0 127 0" result="hardAlpha"/>
<feOffset dy="4"/>
<feGaussianBlur stdDeviation="2"/>
<feComposite in2="hardAlpha" operator="out"/>
<feColorMatrix type="matrix" values="0 0 0 0 0 0 0 0 0 0 0 0 0 0 0 0 0 0 0.25 0"/>
<feBlend mode="normal" in2="BackgroundImageFix" result="effect1_dropShadow_30_2"/>
<feBlend mode="normal" in="SourceGraphic" in2="effect1_dropShadow_30_2" result="shape"/>
</filter>
<filter id="filter1_b_30_2" x="11" y="-1.99996" width="150" height="140.674" filterUnits="userSpaceOnUse" color-interpolation-filters="sRGB">
<feFlood flood-opacity="0" result="BackgroundImageFix"/>
<feGaussianBlur in="BackgroundImageFix" stdDeviation="2"/>
<feComposite in2="SourceAlpha" operator="in" result="effect1_backgroundBlur_30_2"/>
<feBlend mode="normal" in="SourceGraphic" in2="effect1_backgroundBlur_30_2" result="shape"/>
</filter>
<filter id="filter2_b_30_2" x="184.1" y="27" width="504.414" height="84" filterUnits="userSpaceOnUse" color-interpolation-filters="sRGB">
<feFlood flood-opacity="0" result="BackgroundImageFix"/>
<feGaussianBlur in="BackgroundImageFix" stdDeviation="2"/>
<feComposite in2="SourceAlpha" operator="in" result="effect1_backgroundBlur_30_2"/>
<feBlend mode="normal" in="SourceGraphic" in2="effect1_backgroundBlur_30_2" result="shape"/>
</filter>
<linearGradient id="paint0_linear_30_2" x1="-4.48682" y1="68.337" x2="132.259" y2="68.337" gradientUnits="userSpaceOnUse">
<stop stop-color="#1C2F56"/>
</linearGradient>
<linearGradient id="paint1_linear_30_2" x1="31.01" y1="68.3367" x2="167.76" y2="68.3367" gradientUnits="userSpaceOnUse">
<stop stop-color="#1C2F56"/>
</linearGradient>
<linearGradient id="paint2_linear_30_2" x1="184" y1="67.5" x2="686" y2="67.5" gradientUnits="userSpaceOnUse">
<stop offset="0.5" stop-color="#1C2F56"/>
</linearGradient>
</defs>
</svg>
