<svg width="723" height="173" viewBox="0 0 723 173" fill="none" xmlns="http://www.w3.org/2000/svg">
<g filter="url(#filter0_i_22_11)">
<mask id="mask0_22_11" style="mask-type:luminance" maskUnits="userSpaceOnUse" x="23" y="19" width="142" height="130">
<path d="M165 19.4382H23V148.385H165V19.4382Z" fill="white"/>
</mask>
<g mask="url(#mask0_22_11)">
<path d="M129.503 148.385V139.175C129.503 137.965 129.273 136.767 128.827 135.65C128.381 134.533 127.728 133.517 126.904 132.662C126.079 131.806 125.1 131.128 124.024 130.665C122.947 130.202 121.793 129.964 120.628 129.964H85.1251C73.3561 129.964 62.0691 125.112 53.747 116.476C45.425 107.839 40.7497 96.1258 40.7495 83.9118C40.7495 77.864 41.8974 71.8756 44.1275 66.2882C46.3575 60.7008 49.6262 55.624 53.7469 51.3476C57.8676 47.0712 62.7595 43.6791 68.1434 41.3648C73.5272 39.0504 79.2977 37.8594 85.1251 37.8594H120.625C121.79 37.8598 122.945 37.6218 124.022 37.1591C125.099 36.6964 126.078 36.018 126.902 35.1627C127.727 34.3073 128.381 33.2918 128.827 32.1742C129.273 31.0565 129.503 29.8586 129.503 28.6488V19.4382H85.1271C76.9688 19.4382 68.8903 21.1059 61.3529 24.346C53.8156 27.5861 46.967 32.3352 41.1983 38.3221C35.4294 44.3091 30.8534 51.4166 27.7314 59.2389C24.6094 67.0612 23.0025 75.4451 23.0026 83.9118C23.0026 101.011 29.5478 117.41 41.1984 129.501C52.849 141.592 68.6507 148.385 85.1271 148.385H129.503Z" fill="url(#paint0_linear_22_11)"/>
<path d="M58.4999 83.9118C58.4999 91.2401 61.3049 98.2679 66.2979 103.449C71.2909 108.631 78.0628 111.542 85.1239 111.542H129.503C134.211 111.542 138.725 113.483 142.053 116.938C145.382 120.392 147.252 125.078 147.252 129.963V148.385H165.003V129.964C165.003 120.193 161.263 110.822 154.605 103.913C147.947 97.0038 138.918 93.1224 129.503 93.1224H85.1253C82.7714 93.1224 80.514 92.1519 78.8496 90.425C77.1852 88.6974 76.2501 86.3546 76.2501 83.9118C76.2501 81.469 77.1852 79.1263 78.8496 77.3989C80.514 75.6716 82.7714 74.7012 85.1253 74.7012H129.503C138.918 74.7012 147.947 70.8197 154.605 63.9105C161.263 57.0013 165.003 47.6305 165.003 37.8594V19.4382H147.25V37.8594C147.25 42.7444 145.38 47.4293 142.052 50.8837C138.724 54.3382 134.21 56.2792 129.503 56.28H85.1253C81.6287 56.2798 78.1664 56.9943 74.936 58.3829C71.7055 59.7715 68.7703 61.8069 66.2979 64.3727C63.8255 66.9386 61.8643 69.9848 60.5263 73.3374C59.1883 76.6899 58.4997 80.2831 58.4999 83.9118Z" fill="url(#paint1_linear_22_11)"/>
</g>
</g>
<g filter="url(#filter1_i_22_11)">
<path d="M222 55.9C211.667 55.9 206.5 65.8667 206.5 85.8V93.7C206.5 103.167 207.867 110.6 210.6 116C213.333 121.333 217.367 124 222.7 124C230.033 124 236.767 116.867 242.9 102.6H244.7L244 124.9H242.9C242.5 124.167 242.133 123.667 241.8 123.4C241.467 123.067 240.967 122.9 240.3 122.9C239.7 122.9 237.3 123.433 233.1 124.5C228.9 125.5 224.633 126 220.3 126C209.433 126 201 123.067 195 117.2C189.067 111.333 186.1 102.533 186.1 90.8C186.1 79 189.2 69.9 195.4 63.5C201.667 57.1 210.067 53.9 220.6 53.9C224.667 53.9 228.633 54.4333 232.5 55.5C236.433 56.5 238.733 57 239.4 57C240.067 57 240.567 56.8667 240.9 56.6C241.233 56.2667 241.6 55.7333 242 55H243.1L243.9 76.7H242.1C239.1 69.9667 236 64.8333 232.8 61.3C229.667 57.7 226.067 55.9 222 55.9ZM271.743 70.5C268.21 70.5 265.676 69.6 264.143 67.8C262.676 66 261.943 63.7667 261.943 61.1C261.943 58.4333 262.743 56.2333 264.343 54.5C266.01 52.7667 268.51 51.9 271.843 51.9C275.176 51.9 277.71 52.7 279.443 54.3C281.176 55.8333 282.043 58.0667 282.043 61C282.043 63.8667 281.21 66.1667 279.543 67.9C277.876 69.6333 275.276 70.5 271.743 70.5ZM256.643 77.4H281.143V123.2H286.743V125H257.043V123.2H262.543V79.2H256.643V77.4ZM289.754 79.2V77.4H319.654V79.2H313.354L325.354 112.4L336.154 79.2H329.454V77.4H342.954V79.2H338.554L323.754 125H312.354L293.854 79.2H289.754ZM372.738 126C364.138 126 357.671 123.8 353.338 119.4C349.071 114.933 346.938 108.767 346.938 100.9C346.938 92.9667 349.338 86.9 354.138 82.7C359.004 78.5 365.171 76.4 372.638 76.4C387.771 76.4 395.038 84 394.438 99.2H366.238V103.1C366.238 109.633 367.071 114.567 368.738 117.9C370.404 121.233 373.304 122.9 377.438 122.9C385.171 122.9 390.238 118.767 392.638 110.5L394.438 110.8C393.171 115.6 390.871 119.333 387.538 122C384.271 124.667 379.338 126 372.738 126ZM366.338 97.2H376.638V92.3C376.638 86.9 376.304 83.2333 375.638 81.3C375.038 79.3 373.771 78.3 371.837 78.3C369.971 78.3 368.571 79.3667 367.638 81.5C366.771 83.5667 366.338 87.1667 366.338 92.3V97.2ZM403.2 77.4H427.3V86.6C428.367 83.5333 430 81.0667 432.2 79.2C434.4 77.3333 437.733 76.4 442.2 76.4C452.533 76.4 457.7 81.9667 457.7 93.1V123.2H463.3V125H435V123.2H439.1V90.7C439.1 86.7 438.833 84.1333 438.3 83C437.767 81.8 436.8 81.2 435.4 81.2C433.267 81.2 431.367 82.6 429.7 85.4C428.1 88.2 427.3 91.6 427.3 95.6V123.2H431.6V125H403.2V123.2H408.7V79.2H403.2V77.4ZM474.133 110.7V79.2H468.633V77.4H474.133V64.5L492.733 59.9V77.4H505.733V79.2H492.733V112.9C492.733 116.033 493.033 118.333 493.633 119.8C494.299 121.267 495.633 122 497.633 122C499.633 122 501.366 121 502.833 119C504.366 117 505.366 114.267 505.833 110.8L507.533 111C506.999 115.6 505.533 119.267 503.133 122C500.733 124.667 496.766 126 491.233 126C485.699 126 481.466 124.9 478.533 122.7C475.599 120.5 474.133 116.5 474.133 110.7ZM539.788 126C531.188 126 524.722 123.8 520.388 119.4C516.122 114.933 513.988 108.767 513.988 100.9C513.988 92.9667 516.388 86.9 521.188 82.7C526.055 78.5 532.222 76.4 539.688 76.4C554.822 76.4 562.088 84 561.488 99.2H533.288V103.1C533.288 109.633 534.122 114.567 535.788 117.9C537.455 121.233 540.355 122.9 544.488 122.9C552.222 122.9 557.288 118.767 559.688 110.5L561.488 110.8C560.222 115.6 557.922 119.333 554.588 122C551.322 124.667 546.388 126 539.788 126ZM533.388 97.2H543.688V92.3C543.688 86.9 543.355 83.2333 542.688 81.3C542.088 79.3 540.822 78.3 538.888 78.3C537.022 78.3 535.622 79.3667 534.688 81.5C533.822 83.5667 533.388 87.1667 533.388 92.3V97.2ZM598.051 78.2C595.117 78.2 593.017 79.8 591.751 83C590.484 86.2 589.851 91.5 589.851 98.9V104.1C589.851 110.7 590.584 115.433 592.051 118.3C593.517 121.167 596.217 122.6 600.151 122.6C604.084 122.6 607.217 121.267 609.551 118.6C611.884 115.933 613.384 112.9 614.051 109.5L615.851 109.7C614.584 115.433 612.251 119.567 608.851 122.1C605.384 124.7 600.617 126 594.551 126C586.817 126 580.884 123.933 576.751 119.8C572.617 115.6 570.551 109.5 570.551 101.5C570.551 93.4333 572.884 87.2333 577.551 82.9C582.284 78.5667 588.851 76.4 597.251 76.4C603.184 76.4 607.717 77.5667 610.851 79.9C613.984 82.1667 615.551 85.0333 615.551 88.5C615.551 91.9667 614.784 94.5 613.251 96.1C611.784 97.7 609.717 98.5 607.051 98.5C604.451 98.5 602.351 97.8 600.751 96.4C599.151 95 598.351 92.9333 598.351 90.2C598.351 89 598.517 87.8 598.851 86.6H602.151C602.617 85.2667 602.851 84.0667 602.851 83C602.851 79.8 601.251 78.2 598.051 78.2ZM622.414 50H646.514V86.6C647.581 83.5333 649.214 81.0667 651.414 79.2C653.614 77.3333 656.947 76.4 661.414 76.4C671.747 76.4 676.914 81.9667 676.914 93.1V123.2H682.514V125H654.214V123.2H658.314V90.7C658.314 86.7 658.047 84.1333 657.514 83C656.981 81.8 656.014 81.2 654.614 81.2C652.481 81.2 650.581 82.6 648.914 85.4C647.314 88.2 646.514 91.6 646.514 95.6V123.2H650.814V125H622.414V123.2H627.914V51.8H622.414V50Z" fill="#F54A48"/>
<path d="M222 55.9C211.667 55.9 206.5 65.8667 206.5 85.8V93.7C206.5 103.167 207.867 110.6 210.6 116C213.333 121.333 217.367 124 222.7 124C230.033 124 236.767 116.867 242.9 102.6H244.7L244 124.9H242.9C242.5 124.167 242.133 123.667 241.8 123.4C241.467 123.067 240.967 122.9 240.3 122.9C239.7 122.9 237.3 123.433 233.1 124.5C228.9 125.5 224.633 126 220.3 126C209.433 126 201 123.067 195 117.2C189.067 111.333 186.1 102.533 186.1 90.8C186.1 79 189.2 69.9 195.4 63.5C201.667 57.1 210.067 53.9 220.6 53.9C224.667 53.9 228.633 54.4333 232.5 55.5C236.433 56.5 238.733 57 239.4 57C240.067 57 240.567 56.8667 240.9 56.6C241.233 56.2667 241.6 55.7333 242 55H243.1L243.9 76.7H242.1C239.1 69.9667 236 64.8333 232.8 61.3C229.667 57.7 226.067 55.9 222 55.9ZM271.743 70.5C268.21 70.5 265.676 69.6 264.143 67.8C262.676 66 261.943 63.7667 261.943 61.1C261.943 58.4333 262.743 56.2333 264.343 54.5C266.01 52.7667 268.51 51.9 271.843 51.9C275.176 51.9 277.71 52.7 279.443 54.3C281.176 55.8333 282.043 58.0667 282.043 61C282.043 63.8667 281.21 66.1667 279.543 67.9C277.876 69.6333 275.276 70.5 271.743 70.5ZM256.643 77.4H281.143V123.2H286.743V125H257.043V123.2H262.543V79.2H256.643V77.4ZM289.754 79.2V77.4H319.654V79.2H313.354L325.354 112.4L336.154 79.2H329.454V77.4H342.954V79.2H338.554L323.754 125H312.354L293.854 79.2H289.754ZM372.738 126C364.138 126 357.671 123.8 353.338 119.4C349.071 114.933 346.938 108.767 346.938 100.9C346.938 92.9667 349.338 86.9 354.138 82.7C359.004 78.5 365.171 76.4 372.638 76.4C387.771 76.4 395.038 84 394.438 99.2H366.238V103.1C366.238 109.633 367.071 114.567 368.738 117.9C370.404 121.233 373.304 122.9 377.438 122.9C385.171 122.9 390.238 118.767 392.638 110.5L394.438 110.8C393.171 115.6 390.871 119.333 387.538 122C384.271 124.667 379.338 126 372.738 126ZM366.338 97.2H376.638V92.3C376.638 86.9 376.304 83.2333 375.638 81.3C375.038 79.3 373.771 78.3 371.837 78.3C369.971 78.3 368.571 79.3667 367.638 81.5C366.771 83.5667 366.338 87.1667 366.338 92.3V97.2ZM403.2 77.4H427.3V86.6C428.367 83.5333 430 81.0667 432.2 79.2C434.4 77.3333 437.733 76.4 442.2 76.4C452.533 76.4 457.7 81.9667 457.7 93.1V123.2H463.3V125H435V123.2H439.1V90.7C439.1 86.7 438.833 84.1333 438.3 83C437.767 81.8 436.8 81.2 435.4 81.2C433.267 81.2 431.367 82.6 429.7 85.4C428.1 88.2 427.3 91.6 427.3 95.6V123.2H431.6V125H403.2V123.2H408.7V79.2H403.2V77.4ZM474.133 110.7V79.2H468.633V77.4H474.133V64.5L492.733 59.9V77.4H505.733V79.2H492.733V112.9C492.733 116.033 493.033 118.333 493.633 119.8C494.299 121.267 495.633 122 497.633 122C499.633 122 501.366 121 502.833 119C504.366 117 505.366 114.267 505.833 110.8L507.533 111C506.999 115.6 505.533 119.267 503.133 122C500.733 124.667 496.766 126 491.233 126C485.699 126 481.466 124.9 478.533 122.7C475.599 120.5 474.133 116.5 474.133 110.7ZM539.788 126C531.188 126 524.722 123.8 520.388 119.4C516.122 114.933 513.988 108.767 513.988 100.9C513.988 92.9667 516.388 86.9 521.188 82.7C526.055 78.5 532.222 76.4 539.688 76.4C554.822 76.4 562.088 84 561.488 99.2H533.288V103.1C533.288 109.633 534.122 114.567 535.788 117.9C537.455 121.233 540.355 122.9 544.488 122.9C552.222 122.9 557.288 118.767 559.688 110.5L561.488 110.8C560.222 115.6 557.922 119.333 554.588 122C551.322 124.667 546.388 126 539.788 126ZM533.388 97.2H543.688V92.3C543.688 86.9 543.355 83.2333 542.688 81.3C542.088 79.3 540.822 78.3 538.888 78.3C537.022 78.3 535.622 79.3667 534.688 81.5C533.822 83.5667 533.388 87.1667 533.388 92.3V97.2ZM598.051 78.2C595.117 78.2 593.017 79.8 591.751 83C590.484 86.2 589.851 91.5 589.851 98.9V104.1C589.851 110.7 590.584 115.433 592.051 118.3C593.517 121.167 596.217 122.6 600.151 122.6C604.084 122.6 607.217 121.267 609.551 118.6C611.884 115.933 613.384 112.9 614.051 109.5L615.851 109.7C614.584 115.433 612.251 119.567 608.851 122.1C605.384 124.7 600.617 126 594.551 126C586.817 126 580.884 123.933 576.751 119.8C572.617 115.6 570.551 109.5 570.551 101.5C570.551 93.4333 572.884 87.2333 577.551 82.9C582.284 78.5667 588.851 76.4 597.251 76.4C603.184 76.4 607.717 77.5667 610.851 79.9C613.984 82.1667 615.551 85.0333 615.551 88.5C615.551 91.9667 614.784 94.5 613.251 96.1C611.784 97.7 609.717 98.5 607.051 98.5C604.451 98.5 602.351 97.8 600.751 96.4C599.151 95 598.351 92.9333 598.351 90.2C598.351 89 598.517 87.8 598.851 86.6H602.151C602.617 85.2667 602.851 84.0667 602.851 83C602.851 79.8 601.251 78.2 598.051 78.2ZM622.414 50H646.514V86.6C647.581 83.5333 649.214 81.0667 651.414 79.2C653.614 77.3333 656.947 76.4 661.414 76.4C671.747 76.4 676.914 81.9667 676.914 93.1V123.2H682.514V125H654.214V123.2H658.314V90.7C658.314 86.7 658.047 84.1333 657.514 83C656.981 81.8 656.014 81.2 654.614 81.2C652.481 81.2 650.581 82.6 648.914 85.4C647.314 88.2 646.514 91.6 646.514 95.6V123.2H650.814V125H622.414V123.2H627.914V51.8H622.414V50Z" fill="#FA982F" fill-opacity="0.5"/>
</g>
<defs>
<filter id="filter0_i_22_11" x="23.0026" y="19.4382" width="141.997" height="132.947" filterUnits="userSpaceOnUse" color-interpolation-filters="sRGB">
<feFlood flood-opacity="0" result="BackgroundImageFix"/>
<feBlend mode="normal" in="SourceGraphic" in2="BackgroundImageFix" result="shape"/>
<feColorMatrix in="SourceAlpha" type="matrix" values="0 0 0 0 0 0 0 0 0 0 0 0 0 0 0 0 0 0 127 0" result="hardAlpha"/>
<feOffset dy="4"/>
<feGaussianBlur stdDeviation="2"/>
<feComposite in2="hardAlpha" operator="arithmetic" k2="-1" k3="1"/>
<feColorMatrix type="matrix" values="0 0 0 0 0 0 0 0 0 0 0 0 0 0 0 0 0 0 0.25 0"/>
<feBlend mode="normal" in2="shape" result="effect1_innerShadow_22_11"/>
</filter>
<filter id="filter1_i_22_11" x="186.1" y="50" width="496.414" height="80" filterUnits="userSpaceOnUse" color-interpolation-filters="sRGB">
<feFlood flood-opacity="0" result="BackgroundImageFix"/>
<feBlend mode="normal" in="SourceGraphic" in2="BackgroundImageFix" result="shape"/>
<feColorMatrix in="SourceAlpha" type="matrix" values="0 0 0 0 0 0 0 0 0 0 0 0 0 0 0 0 0 0 127 0" result="hardAlpha"/>
<feOffset dy="4"/>
<feGaussianBlur stdDeviation="2"/>
<feComposite in2="hardAlpha" operator="arithmetic" k2="-1" k3="1"/>
<feColorMatrix type="matrix" values="0 0 0 0 0 0 0 0 0 0 0 0 0 0 0 0 0 0 0.25 0"/>
<feBlend mode="normal" in2="shape" result="effect1_innerShadow_22_11"/>
</filter>
<linearGradient id="paint0_linear_22_11" x1="39.0841" y1="83.9118" x2="175.724" y2="83.9118" gradientUnits="userSpaceOnUse">
<stop stop-color="#F54A48"/>
<stop offset="1" stop-color="#FA982F"/>
</linearGradient>
<linearGradient id="paint1_linear_22_11" x1="39.0099" y1="83.9115" x2="175.759" y2="83.9115" gradientUnits="userSpaceOnUse">
<stop stop-color="#F54A48"/>
<stop offset="1" stop-color="#FA982F"/>
</linearGradient>
</defs>
</svg>
